<svg width="128" height="128" viewBox="0 0 128 128" fill="none" xmlns="http://www.w3.org/2000/svg">
<circle cx="64" cy="64" r="64" fill="black"/>
<path d="M68.0282 96.7824H61.1668L83.7003 45.7935H100.776L73.5641 104H55.241L28.0292 45.7935H45.3387L68.0282 96.7824Z" fill="white"/>
<path d="M45.8553 24.6063L37.8243 41.3698L36.9666 35.5491C38.63 35.5491 40.1374 35.9372 41.4889 36.7133C42.8404 37.4894 43.932 38.55 44.7637 39.8952C45.5434 41.2404 45.9332 42.715 45.9332 44.3189C45.9332 45.9746 45.5434 47.4491 44.7637 48.7426C43.932 50.0878 42.8404 51.1485 41.4889 51.9246C40.1374 52.7007 38.63 53.0887 36.9666 53.0887C35.2513 53.0887 33.7178 52.7007 32.3664 51.9246C31.0149 51.1485 29.9493 50.062 29.1696 48.665C28.3899 47.3198 28 45.7935 28 44.0861C28 42.5339 28.3899 40.8783 29.1696 39.1191C29.8973 37.36 31.1708 35.1094 32.9901 32.3672L38.1362 24.6063L45.8553 24.6063Z" fill="white"/>
<path d="M83.1447 24L91.1757 40.7635L92.0334 34.9428C90.37 34.9428 88.8626 35.3309 87.5111 36.107C86.1596 36.883 85.068 37.9437 84.2363 39.2889C83.4566 40.6341 83.0668 42.1087 83.0668 43.7126C83.0668 45.3683 83.4566 46.8428 84.2363 48.1363C85.068 49.4815 86.1596 50.5422 87.5111 51.3183C88.8626 52.0943 90.37 52.4824 92.0334 52.4824C93.7487 52.4824 95.2822 52.0943 96.6336 51.3183C97.9851 50.5422 99.0507 49.4557 99.8304 48.0587C100.61 46.7135 101 45.1872 101 43.4798C101 41.9276 100.61 40.272 99.8304 38.5128C99.1027 36.7537 97.8292 34.503 96.0099 31.7609L90.8638 24L83.1447 24Z" fill="white"/>
<path d="M64.1954 53.6756L56.5462 40.4882L71.8447 40.4882L64.1954 53.6756Z" fill="white"/>
</svg>
